<svg xmlns="http://www.w3.org/2000/svg" viewBox="0 0 180 180" role="img" aria-label="Site icon: a curve with a tangent line grazing it at a point.">
<rect width="180" height="180" rx="36" fill="#f4f3ee"/>
<path d="M 34.0 140.0 L 34.0 140.0 L 35.5 140.0 L 36.9 139.9 L 38.4 139.9 L 39.8 139.8 L 41.2 139.6 L 42.7 139.4 L 44.1 139.2 L 45.6 139.0 L 47.0 138.7 L 48.5 138.4 L 50.0 138.1 L 51.4 137.8 L 52.9 137.4 L 54.3 136.9 L 55.8 136.5 L 57.2 136.0 L 58.6 135.5 L 60.1 134.9 L 61.5 134.4 L 63.0 133.8 L 64.5 133.1 L 65.9 132.4 L 67.3 131.7 L 68.8 131.0 L 70.2 130.2 L 71.7 129.4 L 73.2 128.6 L 74.6 127.8 L 76.0 126.9 L 77.5 125.9 L 79.0 125.0 L 80.4 124.0 L 81.8 123.0 L 83.3 121.9 L 84.8 120.9 L 86.2 119.8 L 87.7 118.6 L 89.1 117.4 L 90.5 116.2 L 92.0 115.0 L 93.4 113.7 L 94.9 112.4 L 96.3 111.1 L 97.8 109.8 L 99.2 108.4 L 100.7 106.9 L 102.2 105.5 L 103.6 104.0 L 105.1 102.5 L 106.5 100.9 L 107.9 99.4 L 109.4 97.8 L 110.8 96.1 L 112.3 94.4 L 113.8 92.7 L 115.2 91.0 L 116.7 89.2 L 118.1 87.4 L 119.6 85.6 L 121.0 83.8 L 122.4 81.9 L 123.9 79.9 L 125.3 78.0 L 126.8 76.0 L 128.2 74.0 L 129.7 71.9 L 131.2 69.9 L 132.6 67.8 L 134.1 65.6 L 135.5 63.4 L 136.9 61.2 L 138.4 59.0 L 139.8 56.7 L 141.3 54.4 L 142.8 52.1 L 144.2 49.8 L 145.7 47.4 L 147.1 44.9 L 148.6 42.5 L 150.0 40.0 L 150.0 140.0 Z" fill="#eaf0f6" stroke="none"/>
<path d="M 34.0 140.0 L 35.5 140.0 L 36.9 139.9 L 38.4 139.9 L 39.8 139.8 L 41.2 139.6 L 42.7 139.4 L 44.1 139.2 L 45.6 139.0 L 47.0 138.7 L 48.5 138.4 L 50.0 138.1 L 51.4 137.8 L 52.9 137.4 L 54.3 136.9 L 55.8 136.5 L 57.2 136.0 L 58.6 135.5 L 60.1 134.9 L 61.5 134.4 L 63.0 133.8 L 64.5 133.1 L 65.9 132.4 L 67.3 131.7 L 68.8 131.0 L 70.2 130.2 L 71.7 129.4 L 73.2 128.6 L 74.6 127.8 L 76.0 126.9 L 77.5 125.9 L 79.0 125.0 L 80.4 124.0 L 81.8 123.0 L 83.3 121.9 L 84.8 120.9 L 86.2 119.8 L 87.7 118.6 L 89.1 117.4 L 90.5 116.2 L 92.0 115.0 L 93.4 113.7 L 94.9 112.4 L 96.3 111.1 L 97.8 109.8 L 99.2 108.4 L 100.7 106.9 L 102.2 105.5 L 103.6 104.0 L 105.1 102.5 L 106.5 100.9 L 107.9 99.4 L 109.4 97.8 L 110.8 96.1 L 112.3 94.4 L 113.8 92.7 L 115.2 91.0 L 116.7 89.2 L 118.1 87.4 L 119.6 85.6 L 121.0 83.8 L 122.4 81.9 L 123.9 79.9 L 125.3 78.0 L 126.8 76.0 L 128.2 74.0 L 129.7 71.9 L 131.2 69.9 L 132.6 67.8 L 134.1 65.6 L 135.5 63.4 L 136.9 61.2 L 138.4 59.0 L 139.8 56.7 L 141.3 54.4 L 142.8 52.1 L 144.2 49.8 L 145.7 47.4 L 147.1 44.9 L 148.6 42.5 L 150.0 40.0" fill="none" stroke="#274b6d" stroke-width="6.00" stroke-linecap="round" stroke-linejoin="round"/>
<line x1="80.4" y1="130.8" x2="140.7" y2="62.1" stroke="#9c6b12" stroke-width="6.00" stroke-linecap="round"/>
<circle cx="110.6" cy="96.4" r="10.0" fill="#9c6b12"/>
</svg>