<?xml version="1.0" encoding="utf-8" standalone="no"?>
<!DOCTYPE svg PUBLIC "-//W3C//DTD SVG 1.1//EN"
  "http://www.w3.org/Graphics/SVG/1.1/DTD/svg11.dtd">
<svg xmlns:xlink="http://www.w3.org/1999/xlink" width="470.16pt" height="225.038437pt" viewBox="0 0 470.16 225.038437" xmlns="http://www.w3.org/2000/svg" version="1.1">
 <metadata>
  <rdf:RDF xmlns:dc="http://purl.org/dc/elements/1.1/" xmlns:cc="http://creativecommons.org/ns#" xmlns:rdf="http://www.w3.org/1999/02/22-rdf-syntax-ns#">
   <cc:Work>
    <dc:type rdf:resource="http://purl.org/dc/dcmitype/StillImage"/>
    <dc:date>2026-07-17T11:24:49.440141</dc:date>
    <dc:format>image/svg+xml</dc:format>
    <dc:creator>
     <cc:Agent>
      <dc:title>Matplotlib v3.9.4, https://matplotlib.org/</dc:title>
     </cc:Agent>
    </dc:creator>
   </cc:Work>
  </rdf:RDF>
 </metadata>
 <defs>
  <style type="text/css">*{stroke-linejoin: round; stroke-linecap: butt}</style>
 </defs>
 <g id="figure_1">
  <g id="patch_1">
   <path d="M 0 225.038437 
L 470.16 225.038437 
L 470.16 0 
L 0 0 
L 0 225.038437 
z
" style="fill: none"/>
  </g>
  <g id="axes_1">
   <g id="patch_2">
    <path d="M 7.2 217.838437 
L 230.22 217.838437 
L 230.22 20.798437 
L 7.2 20.798437 
L 7.2 217.838437 
z
" style="fill: none"/>
   </g>
   <g id="matplotlib.axis_1"/>
   <g id="matplotlib.axis_2"/>
   <g id="line2d_1">
    <path d="M 7.2 201.980087 
L 13.907368 200.282697 
L 20.614737 198.370144 
L 27.322105 196.242429 
L 34.588421 193.6946 
L 41.854737 190.894254 
L 49.121053 187.841391 
L 56.387368 184.536012 
L 63.653684 180.978116 
L 70.92 177.167703 
L 78.186316 173.104773 
L 85.452632 168.789327 
L 92.718947 164.221364 
L 99.985263 159.400884 
L 107.251579 154.327888 
L 115.076842 148.58226 
L 122.902105 142.543773 
L 130.727368 136.212426 
L 138.552632 129.58822 
L 146.377895 122.671154 
L 154.203158 115.461228 
L 162.028421 107.958443 
L 169.853684 100.162798 
L 178.237895 91.485336 
L 186.622105 82.471684 
L 195.006316 73.121841 
L 203.390526 63.435807 
L 211.774737 53.413582 
L 220.158947 43.055166 
L 228.543158 32.360559 
L 230.22 30.181295 
L 230.22 30.181295 
" clip-path="url(#pca98527830)" style="fill: none; stroke: #17181b; stroke-width: 2.2; stroke-linecap: square"/>
   </g>
   <g id="line2d_2">
    <path d="M 87.4872 176.860461 
L 212.3784 62.003717 
" clip-path="url(#pca98527830)" style="fill: none; stroke: #274b6d; stroke-width: 2; stroke-linecap: square"/>
   </g>
   <g id="patch_3">
    <path d="M 7.2 217.838437 
L 7.2 20.798437 
" style="fill: none; stroke: #cfcdc4; stroke-width: 0.8; stroke-linejoin: miter; stroke-linecap: square"/>
   </g>
   <g id="patch_4">
    <path d="M 7.2 217.838437 
L 230.22 217.838437 
" style="fill: none; stroke: #cfcdc4; stroke-width: 0.8; stroke-linejoin: miter; stroke-linecap: square"/>
   </g>
   <g id="text_1">
    <text style="fill: #274b6d; font: 8.5px 'DejaVu Sans', 'Helvetica', 'Arial', sans-serif" transform="translate(75.39918 41.049909)">steepness at a point</text>
    <text style="fill: #274b6d; font: 8.5px 'DejaVu Sans', 'Helvetica', 'Arial', sans-serif" transform="translate(84.134258 50.56805)">= the derivative</text>
   </g>
   <g id="text_2">
    <text style="fill: #17181b; font: 700 10px 'DejaVu Sans', 'Helvetica', 'Arial', sans-serif; text-anchor: middle" x="118.71" y="14.798437" transform="rotate(-0 118.71 14.798437)">how fast</text>
   </g>
   <g id="line2d_3">
    <path d="M 149.9328 119.432089 
" clip-path="url(#pca98527830)" style="fill: none; stroke: #274b6d; stroke-width: 1.5; stroke-linecap: square"/>
    <defs>
     <path id="m66983c1a96" d="M 0 3 
C 0.795609 3 1.55874 2.683901 2.12132 2.12132 
C 2.683901 1.55874 3 0.795609 3 0 
C 3 -0.795609 2.683901 -1.55874 2.12132 -2.12132 
C 1.55874 -2.683901 0.795609 -3 0 -3 
C -0.795609 -3 -1.55874 -2.683901 -2.12132 -2.12132 
C -2.683901 -1.55874 -3 -0.795609 -3 0 
C -3 0.795609 -2.683901 1.55874 -2.12132 2.12132 
C -1.55874 2.683901 -0.795609 3 0 3 
z
" style="stroke: #274b6d"/>
    </defs>
    <g clip-path="url(#pca98527830)">
     <use xlink:href="#m66983c1a96" x="149.9328" y="119.432089" style="fill: #274b6d; stroke: #274b6d"/>
    </g>
   </g>
  </g>
  <g id="axes_2">
   <g id="patch_5">
    <path d="M 239.94 217.838437 
L 462.96 217.838437 
L 462.96 20.798437 
L 239.94 20.798437 
L 239.94 217.838437 
z
" style="fill: none"/>
   </g>
   <g id="PolyCollection_1">
    <defs>
     <path id="m8c2681f04d" d="M 239.94 -23.05835 
L 239.94 -7.2 
L 240.498947 -7.2 
L 241.057895 -7.2 
L 241.616842 -7.2 
L 242.175789 -7.2 
L 242.734737 -7.2 
L 243.293684 -7.2 
L 243.852632 -7.2 
L 244.411579 -7.2 
L 244.970526 -7.2 
L 245.529474 -7.2 
L 246.088421 -7.2 
L 246.647368 -7.2 
L 247.206316 -7.2 
L 247.765263 -7.2 
L 248.324211 -7.2 
L 248.883158 -7.2 
L 249.442105 -7.2 
L 250.001053 -7.2 
L 250.56 -7.2 
L 251.118947 -7.2 
L 251.677895 -7.2 
L 252.236842 -7.2 
L 252.795789 -7.2 
L 253.354737 -7.2 
L 253.913684 -7.2 
L 254.472632 -7.2 
L 255.031579 -7.2 
L 255.590526 -7.2 
L 256.149474 -7.2 
L 256.708421 -7.2 
L 257.267368 -7.2 
L 257.826316 -7.2 
L 258.385263 -7.2 
L 258.944211 -7.2 
L 259.503158 -7.2 
L 260.062105 -7.2 
L 260.621053 -7.2 
L 261.18 -7.2 
L 261.738947 -7.2 
L 262.297895 -7.2 
L 262.856842 -7.2 
L 263.415789 -7.2 
L 263.974737 -7.2 
L 264.533684 -7.2 
L 265.092632 -7.2 
L 265.651579 -7.2 
L 266.210526 -7.2 
L 266.769474 -7.2 
L 267.328421 -7.2 
L 267.887368 -7.2 
L 268.446316 -7.2 
L 269.005263 -7.2 
L 269.564211 -7.2 
L 270.123158 -7.2 
L 270.682105 -7.2 
L 271.241053 -7.2 
L 271.8 -7.2 
L 272.358947 -7.2 
L 272.917895 -7.2 
L 273.476842 -7.2 
L 274.035789 -7.2 
L 274.594737 -7.2 
L 275.153684 -7.2 
L 275.712632 -7.2 
L 276.271579 -7.2 
L 276.830526 -7.2 
L 277.389474 -7.2 
L 277.948421 -7.2 
L 278.507368 -7.2 
L 279.066316 -7.2 
L 279.625263 -7.2 
L 280.184211 -7.2 
L 280.743158 -7.2 
L 281.302105 -7.2 
L 281.861053 -7.2 
L 282.42 -7.2 
L 282.978947 -7.2 
L 283.537895 -7.2 
L 284.096842 -7.2 
L 284.655789 -7.2 
L 285.214737 -7.2 
L 285.773684 -7.2 
L 286.332632 -7.2 
L 286.891579 -7.2 
L 287.450526 -7.2 
L 288.009474 -7.2 
L 288.568421 -7.2 
L 289.127368 -7.2 
L 289.686316 -7.2 
L 290.245263 -7.2 
L 290.804211 -7.2 
L 291.363158 -7.2 
L 291.922105 -7.2 
L 292.481053 -7.2 
L 293.04 -7.2 
L 293.598947 -7.2 
L 294.157895 -7.2 
L 294.716842 -7.2 
L 295.275789 -7.2 
L 295.834737 -7.2 
L 296.393684 -7.2 
L 296.952632 -7.2 
L 297.511579 -7.2 
L 298.070526 -7.2 
L 298.629474 -7.2 
L 299.188421 -7.2 
L 299.747368 -7.2 
L 300.306316 -7.2 
L 300.865263 -7.2 
L 301.424211 -7.2 
L 301.983158 -7.2 
L 302.542105 -7.2 
L 303.101053 -7.2 
L 303.66 -7.2 
L 304.218947 -7.2 
L 304.777895 -7.2 
L 305.336842 -7.2 
L 305.895789 -7.2 
L 306.454737 -7.2 
L 307.013684 -7.2 
L 307.572632 -7.2 
L 308.131579 -7.2 
L 308.690526 -7.2 
L 309.249474 -7.2 
L 309.808421 -7.2 
L 310.367368 -7.2 
L 310.926316 -7.2 
L 311.485263 -7.2 
L 312.044211 -7.2 
L 312.603158 -7.2 
L 313.162105 -7.2 
L 313.721053 -7.2 
L 314.28 -7.2 
L 314.838947 -7.2 
L 315.397895 -7.2 
L 315.956842 -7.2 
L 316.515789 -7.2 
L 317.074737 -7.2 
L 317.633684 -7.2 
L 318.192632 -7.2 
L 318.751579 -7.2 
L 319.310526 -7.2 
L 319.869474 -7.2 
L 320.428421 -7.2 
L 320.987368 -7.2 
L 321.546316 -7.2 
L 322.105263 -7.2 
L 322.664211 -7.2 
L 323.223158 -7.2 
L 323.782105 -7.2 
L 324.341053 -7.2 
L 324.9 -7.2 
L 325.458947 -7.2 
L 326.017895 -7.2 
L 326.576842 -7.2 
L 327.135789 -7.2 
L 327.694737 -7.2 
L 328.253684 -7.2 
L 328.812632 -7.2 
L 329.371579 -7.2 
L 329.930526 -7.2 
L 330.489474 -7.2 
L 331.048421 -7.2 
L 331.607368 -7.2 
L 332.166316 -7.2 
L 332.725263 -7.2 
L 333.284211 -7.2 
L 333.843158 -7.2 
L 334.402105 -7.2 
L 334.961053 -7.2 
L 335.52 -7.2 
L 336.078947 -7.2 
L 336.637895 -7.2 
L 337.196842 -7.2 
L 337.755789 -7.2 
L 338.314737 -7.2 
L 338.873684 -7.2 
L 339.432632 -7.2 
L 339.991579 -7.2 
L 340.550526 -7.2 
L 341.109474 -7.2 
L 341.668421 -7.2 
L 342.227368 -7.2 
L 342.786316 -7.2 
L 343.345263 -7.2 
L 343.904211 -7.2 
L 344.463158 -7.2 
L 345.022105 -7.2 
L 345.581053 -7.2 
L 346.14 -7.2 
L 346.698947 -7.2 
L 347.257895 -7.2 
L 347.816842 -7.2 
L 348.375789 -7.2 
L 348.934737 -7.2 
L 349.493684 -7.2 
L 350.052632 -7.2 
L 350.611579 -7.2 
L 351.170526 -7.2 
L 351.729474 -7.2 
L 352.288421 -7.2 
L 352.847368 -7.2 
L 353.406316 -7.2 
L 353.965263 -7.2 
L 354.524211 -7.2 
L 355.083158 -7.2 
L 355.642105 -7.2 
L 356.201053 -7.2 
L 356.76 -7.2 
L 357.318947 -7.2 
L 357.877895 -7.2 
L 358.436842 -7.2 
L 358.995789 -7.2 
L 359.554737 -7.2 
L 360.113684 -7.2 
L 360.672632 -7.2 
L 361.231579 -7.2 
L 361.790526 -7.2 
L 362.349474 -7.2 
L 362.908421 -7.2 
L 363.467368 -7.2 
L 364.026316 -7.2 
L 364.585263 -7.2 
L 365.144211 -7.2 
L 365.703158 -7.2 
L 366.262105 -7.2 
L 366.821053 -7.2 
L 367.38 -7.2 
L 367.938947 -7.2 
L 368.497895 -7.2 
L 369.056842 -7.2 
L 369.615789 -7.2 
L 370.174737 -7.2 
L 370.733684 -7.2 
L 371.292632 -7.2 
L 371.851579 -7.2 
L 372.410526 -7.2 
L 372.969474 -7.2 
L 373.528421 -7.2 
L 374.087368 -7.2 
L 374.646316 -7.2 
L 375.205263 -7.2 
L 375.764211 -7.2 
L 376.323158 -7.2 
L 376.882105 -7.2 
L 377.441053 -7.2 
L 378 -7.2 
L 378.558947 -7.2 
L 379.117895 -7.2 
L 379.676842 -7.2 
L 380.235789 -7.2 
L 380.794737 -7.2 
L 381.353684 -7.2 
L 381.912632 -7.2 
L 382.471579 -7.2 
L 383.030526 -7.2 
L 383.589474 -7.2 
L 384.148421 -7.2 
L 384.707368 -7.2 
L 385.266316 -7.2 
L 385.825263 -7.2 
L 386.384211 -7.2 
L 386.943158 -7.2 
L 387.502105 -7.2 
L 388.061053 -7.2 
L 388.62 -7.2 
L 389.178947 -7.2 
L 389.737895 -7.2 
L 390.296842 -7.2 
L 390.855789 -7.2 
L 391.414737 -7.2 
L 391.973684 -7.2 
L 392.532632 -7.2 
L 393.091579 -7.2 
L 393.650526 -7.2 
L 394.209474 -7.2 
L 394.768421 -7.2 
L 395.327368 -7.2 
L 395.886316 -7.2 
L 396.445263 -7.2 
L 397.004211 -7.2 
L 397.563158 -7.2 
L 398.122105 -7.2 
L 398.681053 -7.2 
L 399.24 -7.2 
L 399.798947 -7.2 
L 400.357895 -7.2 
L 400.916842 -7.2 
L 401.475789 -7.2 
L 402.034737 -7.2 
L 402.593684 -7.2 
L 403.152632 -7.2 
L 403.711579 -7.2 
L 404.270526 -7.2 
L 404.829474 -7.2 
L 405.388421 -7.2 
L 405.947368 -7.2 
L 406.506316 -7.2 
L 407.065263 -7.2 
L 407.624211 -7.2 
L 408.183158 -7.2 
L 408.742105 -7.2 
L 409.301053 -7.2 
L 409.86 -7.2 
L 410.418947 -7.2 
L 410.977895 -7.2 
L 411.536842 -7.2 
L 412.095789 -7.2 
L 412.654737 -7.2 
L 413.213684 -7.2 
L 413.772632 -7.2 
L 414.331579 -7.2 
L 414.890526 -7.2 
L 415.449474 -7.2 
L 416.008421 -7.2 
L 416.567368 -7.2 
L 417.126316 -7.2 
L 417.685263 -7.2 
L 418.244211 -7.2 
L 418.803158 -7.2 
L 419.362105 -7.2 
L 419.921053 -7.2 
L 420.48 -7.2 
L 421.038947 -7.2 
L 421.597895 -7.2 
L 422.156842 -7.2 
L 422.715789 -7.2 
L 423.274737 -7.2 
L 423.833684 -7.2 
L 424.392632 -7.2 
L 424.951579 -7.2 
L 425.510526 -7.2 
L 426.069474 -7.2 
L 426.628421 -7.2 
L 427.187368 -7.2 
L 427.746316 -7.2 
L 428.305263 -7.2 
L 428.864211 -7.2 
L 429.423158 -7.2 
L 429.982105 -7.2 
L 430.541053 -7.2 
L 431.1 -7.2 
L 431.658947 -7.2 
L 432.217895 -7.2 
L 432.776842 -7.2 
L 433.335789 -7.2 
L 433.894737 -7.2 
L 434.453684 -7.2 
L 435.012632 -7.2 
L 435.571579 -7.2 
L 436.130526 -7.2 
L 436.689474 -7.2 
L 437.248421 -7.2 
L 437.807368 -7.2 
L 438.366316 -7.2 
L 438.925263 -7.2 
L 439.484211 -7.2 
L 440.043158 -7.2 
L 440.602105 -7.2 
L 441.161053 -7.2 
L 441.72 -7.2 
L 442.278947 -7.2 
L 442.837895 -7.2 
L 443.396842 -7.2 
L 443.955789 -7.2 
L 444.514737 -7.2 
L 445.073684 -7.2 
L 445.632632 -7.2 
L 446.191579 -7.2 
L 446.750526 -7.2 
L 447.309474 -7.2 
L 447.868421 -7.2 
L 448.427368 -7.2 
L 448.986316 -7.2 
L 449.545263 -7.2 
L 450.104211 -7.2 
L 450.663158 -7.2 
L 451.222105 -7.2 
L 451.781053 -7.2 
L 452.34 -7.2 
L 452.898947 -7.2 
L 453.457895 -7.2 
L 454.016842 -7.2 
L 454.575789 -7.2 
L 455.134737 -7.2 
L 455.693684 -7.2 
L 456.252632 -7.2 
L 456.811579 -7.2 
L 457.370526 -7.2 
L 457.929474 -7.2 
L 458.488421 -7.2 
L 459.047368 -7.2 
L 459.606316 -7.2 
L 460.165263 -7.2 
L 460.724211 -7.2 
L 461.283158 -7.2 
L 461.842105 -7.2 
L 462.401053 -7.2 
L 462.96 -7.2 
L 462.96 -194.857143 
L 462.96 -194.857143 
L 462.401053 -194.129227 
L 461.842105 -193.402806 
L 461.283158 -192.677879 
L 460.724211 -191.954446 
L 460.165263 -191.232507 
L 459.606316 -190.512062 
L 459.047368 -189.793111 
L 458.488421 -189.075655 
L 457.929474 -188.359693 
L 457.370526 -187.645225 
L 456.811579 -186.932251 
L 456.252632 -186.220772 
L 455.693684 -185.510786 
L 455.134737 -184.802295 
L 454.575789 -184.095298 
L 454.016842 -183.389795 
L 453.457895 -182.685786 
L 452.898947 -181.983272 
L 452.34 -181.282251 
L 451.781053 -180.582725 
L 451.222105 -179.884693 
L 450.663158 -179.188155 
L 450.104211 -178.493112 
L 449.545263 -177.799562 
L 448.986316 -177.107507 
L 448.427368 -176.416946 
L 447.868421 -175.727879 
L 447.309474 -175.040306 
L 446.750526 -174.354228 
L 446.191579 -173.669644 
L 445.632632 -172.986553 
L 445.073684 -172.304957 
L 444.514737 -171.624856 
L 443.955789 -170.946248 
L 443.396842 -170.269135 
L 442.837895 -169.593515 
L 442.278947 -168.91939 
L 441.72 -168.246759 
L 441.161053 -167.575623 
L 440.602105 -166.90598 
L 440.043158 -166.237832 
L 439.484211 -165.571178 
L 438.925263 -164.906018 
L 438.366316 -164.242352 
L 437.807368 -163.58018 
L 437.248421 -162.919503 
L 436.689474 -162.26032 
L 436.130526 -161.602631 
L 435.571579 -160.946436 
L 435.012632 -160.291735 
L 434.453684 -159.638529 
L 433.894737 -158.986816 
L 433.335789 -158.336598 
L 432.776842 -157.687874 
L 432.217895 -157.040644 
L 431.658947 -156.394909 
L 431.1 -155.750667 
L 430.541053 -155.10792 
L 429.982105 -154.466667 
L 429.423158 -153.826908 
L 428.864211 -153.188643 
L 428.305263 -152.551873 
L 427.746316 -151.916597 
L 427.187368 -151.282814 
L 426.628421 -150.650526 
L 426.069474 -150.019733 
L 425.510526 -149.390433 
L 424.951579 -148.762628 
L 424.392632 -148.136316 
L 423.833684 -147.511499 
L 423.274737 -146.888176 
L 422.715789 -146.266348 
L 422.156842 -145.646013 
L 421.597895 -145.027173 
L 421.038947 -144.409827 
L 420.48 -143.793975 
L 419.921053 -143.179617 
L 419.362105 -142.566753 
L 418.803158 -141.955384 
L 418.244211 -141.345509 
L 417.685263 -140.737128 
L 417.126316 -140.130241 
L 416.567368 -139.524848 
L 416.008421 -138.92095 
L 415.449474 -138.318545 
L 414.890526 -137.717635 
L 414.331579 -137.118219 
L 413.772632 -136.520297 
L 413.213684 -135.92387 
L 412.654737 -135.328936 
L 412.095789 -134.735497 
L 411.536842 -134.143552 
L 410.977895 -133.553101 
L 410.418947 -132.964144 
L 409.86 -132.376682 
L 409.301053 -131.790714 
L 408.742105 -131.206239 
L 408.183158 -130.623259 
L 407.624211 -130.041774 
L 407.065263 -129.461782 
L 406.506316 -128.883285 
L 405.947368 -128.306281 
L 405.388421 -127.730772 
L 404.829474 -127.156757 
L 404.270526 -126.584237 
L 403.711579 -126.01321 
L 403.152632 -125.443678 
L 402.593684 -124.87564 
L 402.034737 -124.309096 
L 401.475789 -123.744046 
L 400.916842 -123.18049 
L 400.357895 -122.618429 
L 399.798947 -122.057862 
L 399.24 -121.498789 
L 398.681053 -120.94121 
L 398.122105 -120.385125 
L 397.563158 -119.830535 
L 397.004211 -119.277438 
L 396.445263 -118.725836 
L 395.886316 -118.175728 
L 395.327368 -117.627114 
L 394.768421 -117.079995 
L 394.209474 -116.534369 
L 393.650526 -115.990238 
L 393.091579 -115.447601 
L 392.532632 -114.906458 
L 391.973684 -114.366809 
L 391.414737 -113.828655 
L 390.855789 -113.291995 
L 390.296842 -112.756828 
L 389.737895 -112.223156 
L 389.178947 -111.690979 
L 388.62 -111.160295 
L 388.061053 -110.631106 
L 387.502105 -110.10341 
L 386.943158 -109.577209 
L 386.384211 -109.052503 
L 385.825263 -108.52929 
L 385.266316 -108.007571 
L 384.707368 -107.487347 
L 384.148421 -106.968617 
L 383.589474 -106.451381 
L 383.030526 -105.935639 
L 382.471579 -105.421391 
L 381.912632 -104.908638 
L 381.353684 -104.397379 
L 380.794737 -103.887614 
L 380.235789 -103.379343 
L 379.676842 -102.872566 
L 379.117895 -102.367284 
L 378.558947 -101.863495 
L 378 -101.361201 
L 377.441053 -100.860401 
L 376.882105 -100.361095 
L 376.323158 -99.863284 
L 375.764211 -99.366966 
L 375.205263 -98.872143 
L 374.646316 -98.378814 
L 374.087368 -97.886979 
L 373.528421 -97.396639 
L 372.969474 -96.907792 
L 372.410526 -96.42044 
L 371.851579 -95.934582 
L 371.292632 -95.450218 
L 370.733684 -94.967348 
L 370.174737 -94.485972 
L 369.615789 -94.006091 
L 369.056842 -93.527704 
L 368.497895 -93.050811 
L 367.938947 -92.575412 
L 367.38 -92.101507 
L 366.821053 -91.629096 
L 366.262105 -91.15818 
L 365.703158 -90.688758 
L 365.144211 -90.22083 
L 364.585263 -89.754396 
L 364.026316 -89.289457 
L 363.467368 -88.826011 
L 362.908421 -88.36406 
L 362.349474 -87.903603 
L 361.790526 -87.44464 
L 361.231579 -86.987171 
L 360.672632 -86.531197 
L 360.113684 -86.076717 
L 359.554737 -85.62373 
L 358.995789 -85.172238 
L 358.436842 -84.722241 
L 357.877895 -84.273737 
L 357.318947 -83.826728 
L 356.76 -83.381212 
L 356.201053 -82.937191 
L 355.642105 -82.494665 
L 355.083158 -82.053632 
L 354.524211 -81.614093 
L 353.965263 -81.176049 
L 353.406316 -80.739499 
L 352.847368 -80.304443 
L 352.288421 -79.870881 
L 351.729474 -79.438814 
L 351.170526 -79.00824 
L 350.611579 -78.579161 
L 350.052632 -78.151576 
L 349.493684 -77.725485 
L 348.934737 -77.300888 
L 348.375789 -76.877786 
L 347.816842 -76.456177 
L 347.257895 -76.036063 
L 346.698947 -75.617443 
L 346.14 -75.200318 
L 345.581053 -74.784686 
L 345.022105 -74.370549 
L 344.463158 -73.957905 
L 343.904211 -73.546756 
L 343.345263 -73.137101 
L 342.786316 -72.728941 
L 342.227368 -72.322274 
L 341.668421 -71.917102 
L 341.109474 -71.513424 
L 340.550526 -71.11124 
L 339.991579 -70.71055 
L 339.432632 -70.311354 
L 338.873684 -69.913653 
L 338.314737 -69.517446 
L 337.755789 -69.122733 
L 337.196842 -68.729514 
L 336.637895 -68.337789 
L 336.078947 -67.947559 
L 335.52 -67.558822 
L 334.961053 -67.17158 
L 334.402105 -66.785832 
L 333.843158 -66.401578 
L 333.284211 -66.018819 
L 332.725263 -65.637553 
L 332.166316 -65.257782 
L 331.607368 -64.879505 
L 331.048421 -64.502722 
L 330.489474 -64.127434 
L 329.930526 -63.753639 
L 329.371579 -63.381339 
L 328.812632 -63.010533 
L 328.253684 -62.641221 
L 327.694737 -62.273403 
L 327.135789 -61.907079 
L 326.576842 -61.54225 
L 326.017895 -61.178915 
L 325.458947 -60.817074 
L 324.9 -60.456727 
L 324.341053 -60.097874 
L 323.782105 -59.740516 
L 323.223158 -59.384651 
L 322.664211 -59.030281 
L 322.105263 -58.677405 
L 321.546316 -58.326023 
L 320.987368 -57.976136 
L 320.428421 -57.627742 
L 319.869474 -57.280843 
L 319.310526 -56.935438 
L 318.751579 -56.591527 
L 318.192632 -56.249111 
L 317.633684 -55.908188 
L 317.074737 -55.56876 
L 316.515789 -55.230826 
L 315.956842 -54.894386 
L 315.397895 -54.55944 
L 314.838947 -54.225988 
L 314.28 -53.894031 
L 313.721053 -53.563568 
L 313.162105 -53.234599 
L 312.603158 -52.907124 
L 312.044211 -52.581143 
L 311.485263 -52.256657 
L 310.926316 -51.933664 
L 310.367368 -51.612166 
L 309.808421 -51.292162 
L 309.249474 -50.973652 
L 308.690526 -50.656637 
L 308.131579 -50.341115 
L 307.572632 -50.027088 
L 307.013684 -49.714555 
L 306.454737 -49.403516 
L 305.895789 -49.093972 
L 305.336842 -48.785921 
L 304.777895 -48.479365 
L 304.218947 -48.174303 
L 303.66 -47.870735 
L 303.101053 -47.568661 
L 302.542105 -47.268081 
L 301.983158 -46.968996 
L 301.424211 -46.671405 
L 300.865263 -46.375308 
L 300.306316 -46.080705 
L 299.747368 -45.787596 
L 299.188421 -45.495982 
L 298.629474 -45.205861 
L 298.070526 -44.917235 
L 297.511579 -44.630103 
L 296.952632 -44.344465 
L 296.393684 -44.060322 
L 295.834737 -43.777672 
L 295.275789 -43.496517 
L 294.716842 -43.216856 
L 294.157895 -42.938689 
L 293.598947 -42.662017 
L 293.04 -42.386838 
L 292.481053 -42.113154 
L 291.922105 -41.840964 
L 291.363158 -41.570268 
L 290.804211 -41.301066 
L 290.245263 -41.033358 
L 289.686316 -40.767145 
L 289.127368 -40.502426 
L 288.568421 -40.239201 
L 288.009474 -39.97747 
L 287.450526 -39.717233 
L 286.891579 -39.458491 
L 286.332632 -39.201242 
L 285.773684 -38.945488 
L 285.214737 -38.691228 
L 284.655789 -38.438462 
L 284.096842 -38.187191 
L 283.537895 -37.937413 
L 282.978947 -37.68913 
L 282.42 -37.442341 
L 281.861053 -37.197046 
L 281.302105 -36.953246 
L 280.743158 -36.710939 
L 280.184211 -36.470127 
L 279.625263 -36.230809 
L 279.066316 -35.992985 
L 278.507368 -35.756655 
L 277.948421 -35.521819 
L 277.389474 -35.288478 
L 276.830526 -35.056631 
L 276.271579 -34.826278 
L 275.712632 -34.597419 
L 275.153684 -34.370054 
L 274.594737 -34.144184 
L 274.035789 -33.919807 
L 273.476842 -33.696925 
L 272.917895 -33.475537 
L 272.358947 -33.255643 
L 271.8 -33.037244 
L 271.241053 -32.820338 
L 270.682105 -32.604927 
L 270.123158 -32.39101 
L 269.564211 -32.178587 
L 269.005263 -31.967659 
L 268.446316 -31.758224 
L 267.887368 -31.550284 
L 267.328421 -31.343838 
L 266.769474 -31.138886 
L 266.210526 -30.935428 
L 265.651579 -30.733464 
L 265.092632 -30.532995 
L 264.533684 -30.33402 
L 263.974737 -30.136539 
L 263.415789 -29.940552 
L 262.856842 -29.746059 
L 262.297895 -29.553061 
L 261.738947 -29.361556 
L 261.18 -29.171546 
L 260.621053 -28.98303 
L 260.062105 -28.796009 
L 259.503158 -28.610481 
L 258.944211 -28.426448 
L 258.385263 -28.243908 
L 257.826316 -28.062863 
L 257.267368 -27.883312 
L 256.708421 -27.705256 
L 256.149474 -27.528693 
L 255.590526 -27.353625 
L 255.031579 -27.180051 
L 254.472632 -27.007971 
L 253.913684 -26.837385 
L 253.354737 -26.668294 
L 252.795789 -26.500696 
L 252.236842 -26.334593 
L 251.677895 -26.169984 
L 251.118947 -26.006869 
L 250.56 -25.845248 
L 250.001053 -25.685122 
L 249.442105 -25.52649 
L 248.883158 -25.369351 
L 248.324211 -25.213707 
L 247.765263 -25.059558 
L 247.206316 -24.906902 
L 246.647368 -24.755741 
L 246.088421 -24.606074 
L 245.529474 -24.4579 
L 244.970526 -24.311222 
L 244.411579 -24.166037 
L 243.852632 -24.022346 
L 243.293684 -23.88015 
L 242.734737 -23.739448 
L 242.175789 -23.60024 
L 241.616842 -23.462526 
L 241.057895 -23.326307 
L 240.498947 -23.191581 
L 239.94 -23.05835 
z
" style="stroke: #9c6b12; stroke-opacity: 0.18"/>
    </defs>
    <g clip-path="url(#p5de01eb1c0)">
     <use xlink:href="#m8c2681f04d" x="0" y="225.038437" style="fill: #9c6b12; fill-opacity: 0.18; stroke: #9c6b12; stroke-opacity: 0.18"/>
    </g>
   </g>
   <g id="matplotlib.axis_3"/>
   <g id="matplotlib.axis_4"/>
   <g id="line2d_4">
    <path d="M 239.94 201.980087 
L 246.647368 200.282697 
L 253.354737 198.370144 
L 260.062105 196.242429 
L 267.328421 193.6946 
L 274.594737 190.894254 
L 281.861053 187.841391 
L 289.127368 184.536012 
L 296.393684 180.978116 
L 303.66 177.167703 
L 310.926316 173.104773 
L 318.192632 168.789327 
L 325.458947 164.221364 
L 332.725263 159.400884 
L 339.991579 154.327888 
L 347.816842 148.58226 
L 355.642105 142.543773 
L 363.467368 136.212426 
L 371.292632 129.58822 
L 379.117895 122.671154 
L 386.943158 115.461228 
L 394.768421 107.958443 
L 402.593684 100.162798 
L 410.977895 91.485336 
L 419.362105 82.471684 
L 427.746316 73.121841 
L 436.130526 63.435807 
L 444.514737 53.413582 
L 452.898947 43.055166 
L 461.283158 32.360559 
L 462.96 30.181295 
L 462.96 30.181295 
" clip-path="url(#p5de01eb1c0)" style="fill: none; stroke: #17181b; stroke-width: 2.2; stroke-linecap: square"/>
   </g>
   <g id="patch_6">
    <path d="M 239.94 217.838437 
L 239.94 20.798437 
" style="fill: none; stroke: #cfcdc4; stroke-width: 0.8; stroke-linejoin: miter; stroke-linecap: square"/>
   </g>
   <g id="patch_7">
    <path d="M 239.94 217.838437 
L 462.96 217.838437 
" style="fill: none; stroke: #cfcdc4; stroke-width: 0.8; stroke-linejoin: miter; stroke-linecap: square"/>
   </g>
   <g id="text_3">
    <text style="fill: #9c6b12; font: 8.5px 'DejaVu Sans', 'Helvetica', 'Arial', sans-serif" transform="translate(301.454062 41.049909)">area beneath the curve</text>
    <text style="fill: #9c6b12; font: 8.5px 'DejaVu Sans', 'Helvetica', 'Arial', sans-serif" transform="translate(321.826836 50.56805)">= the integral</text>
   </g>
   <g id="text_4">
    <text style="fill: #17181b; font: 700 10px 'DejaVu Sans', 'Helvetica', 'Arial', sans-serif; text-anchor: middle" x="351.45" y="14.798437" transform="rotate(-0 351.45 14.798437)">how much</text>
   </g>
  </g>
 </g>
 <defs>
  <clipPath id="pca98527830">
   <rect x="7.2" y="20.798437" width="223.02" height="197.04"/>
  </clipPath>
  <clipPath id="p5de01eb1c0">
   <rect x="239.94" y="20.798437" width="223.02" height="197.04"/>
  </clipPath>
 </defs>
</svg>
