<?xml version="1.0" encoding="utf-8" standalone="no"?>
<!DOCTYPE svg PUBLIC "-//W3C//DTD SVG 1.1//EN"
  "http://www.w3.org/Graphics/SVG/1.1/DTD/svg11.dtd">
<svg xmlns:xlink="http://www.w3.org/1999/xlink" width="513.36pt" height="189.580938pt" viewBox="0 0 513.36 189.580938" xmlns="http://www.w3.org/2000/svg" version="1.1">
 <metadata>
  <rdf:RDF xmlns:dc="http://purl.org/dc/elements/1.1/" xmlns:cc="http://creativecommons.org/ns#" xmlns:rdf="http://www.w3.org/1999/02/22-rdf-syntax-ns#">
   <cc:Work>
    <dc:type rdf:resource="http://purl.org/dc/dcmitype/StillImage"/>
    <dc:date>2026-07-17T11:24:49.636483</dc:date>
    <dc:format>image/svg+xml</dc:format>
    <dc:creator>
     <cc:Agent>
      <dc:title>Matplotlib v3.9.4, https://matplotlib.org/</dc:title>
     </cc:Agent>
    </dc:creator>
   </cc:Work>
  </rdf:RDF>
 </metadata>
 <defs>
  <style type="text/css">*{stroke-linejoin: round; stroke-linecap: butt}</style>
 </defs>
 <g id="figure_1">
  <g id="patch_1">
   <path d="M 0 189.580938 
L 513.36 189.580938 
L 513.36 0 
L 0 0 
L 0 189.580938 
z
" style="fill: none"/>
  </g>
  <g id="axes_1">
   <g id="patch_2">
    <path d="M 7.2 167.638438 
L 167.04 167.638438 
L 167.04 20.798438 
L 7.2 20.798438 
L 7.2 167.638438 
z
" style="fill: none"/>
   </g>
   <g id="matplotlib.axis_1">
    <g id="xtick_1">
     <g id="line2d_1">
      <defs>
       <path id="mb3f99132c7" d="M 0 0 
L 0 3.5 
" style="stroke: #6a6d73; stroke-width: 0.8"/>
      </defs>
      <g>
       <use xlink:href="#mb3f99132c7" x="87.12" y="167.638438" style="fill: #6a6d73; stroke: #6a6d73; stroke-width: 0.8"/>
      </g>
     </g>
     <g id="text_1">
      <text style="fill: #6a6d73; font: 8px 'DejaVu Sans', 'Helvetica', 'Arial', sans-serif; text-anchor: middle" x="87.12" y="180.717187" transform="rotate(-0 87.12 180.717187)">a</text>
     </g>
    </g>
   </g>
   <g id="matplotlib.axis_2"/>
   <g id="line2d_2">
    <path d="M 7.2 108.902438 
L 12.019296 103.749819 
L 16.838593 98.91757 
L 21.657889 94.405691 
L 26.477186 90.214182 
L 31.296482 86.343044 
L 36.115779 82.792275 
L 40.935075 79.561877 
L 44.951156 77.114605 
L 48.967236 74.889813 
L 52.983317 72.8875 
L 56.999397 71.107666 
L 61.015477 69.550311 
L 65.031558 68.215436 
L 69.047638 67.10304 
L 73.063719 66.213123 
L 77.079799 65.545685 
L 81.095879 65.100727 
L 85.11196 64.878247 
L 89.12804 64.878247 
L 93.144121 65.100727 
L 97.160201 65.545685 
L 101.176281 66.213123 
L 105.192362 67.10304 
L 109.208442 68.215436 
L 113.224523 69.550311 
L 117.240603 71.107666 
L 121.256683 72.8875 
L 125.272764 74.889813 
L 129.288844 77.114605 
L 133.304925 79.561877 
L 137.321005 82.231627 
L 142.140302 85.729001 
L 146.959598 89.546744 
L 151.778894 93.684858 
L 156.598191 98.143342 
L 161.417487 102.922196 
L 166.236784 108.02142 
L 167.04 108.902438 
L 167.04 108.902438 
" clip-path="url(#p2a55f69308)" style="fill: none; stroke: #17181b; stroke-width: 2; stroke-linecap: square"/>
   </g>
   <g id="line2d_3">
    <path d="M 7.2 167.638438 
L 167.04 167.638438 
" clip-path="url(#p2a55f69308)" style="fill: none; stroke: #cfcdc4; stroke-width: 0.8; stroke-linecap: square"/>
   </g>
   <g id="patch_3">
    <path d="M 7.2 167.638438 
L 7.2 20.798438 
" style="fill: none; stroke: #cfcdc4; stroke-width: 0.8; stroke-linejoin: miter; stroke-linecap: square"/>
   </g>
   <g id="patch_4">
    <path d="M 7.2 167.638438 
L 167.04 167.638438 
" style="fill: none; stroke: #cfcdc4; stroke-width: 0.8; stroke-linejoin: miter; stroke-linecap: square"/>
   </g>
   <g id="patch_5">
    <path d="M 45.047564 77.381937 
Q 60.346872 71.825311 73.964789 66.879358 
" style="fill: none; stroke: #274b6d; stroke-width: 1.6; stroke-linecap: round"/>
    <path d="M 69.966576 66.416444 
L 73.964789 66.879358 
L 71.19553 69.80018 
z
" style="fill: #274b6d; stroke: #274b6d; stroke-width: 1.6; stroke-linecap: round"/>
   </g>
   <g id="patch_6">
    <path d="M 129.192436 77.381937 
Q 113.893128 71.825311 100.275211 66.879358 
" style="fill: none; stroke: #274b6d; stroke-width: 1.6; stroke-linecap: round"/>
    <path d="M 103.04447 69.80018 
L 100.275211 66.879358 
L 104.273424 66.416444 
z
" style="fill: #274b6d; stroke: #274b6d; stroke-width: 1.6; stroke-linecap: round"/>
   </g>
   <g id="text_2">
    <text style="fill: #17181b; font: 700 10px 'DejaVu Sans', 'Helvetica', 'Arial', sans-serif; text-anchor: middle" x="87.12" y="14.798438" transform="rotate(-0 87.12 14.798438)">limit exists</text>
   </g>
   <g id="line2d_4">
    <path d="M 87.12 64.850438 
" clip-path="url(#p2a55f69308)" style="fill: none; stroke: #274b6d; stroke-width: 1.5; stroke-linecap: square"/>
    <defs>
     <path id="m04d91ee839" d="M 0 3.5 
C 0.928211 3.5 1.81853 3.131218 2.474874 2.474874 
C 3.131218 1.81853 3.5 0.928211 3.5 0 
C 3.5 -0.928211 3.131218 -1.81853 2.474874 -2.474874 
C 1.81853 -3.131218 0.928211 -3.5 0 -3.5 
C -0.928211 -3.5 -1.81853 -3.131218 -2.474874 -2.474874 
C -3.131218 -1.81853 -3.5 -0.928211 -3.5 0 
C -3.5 0.928211 -3.131218 1.81853 -2.474874 2.474874 
C -1.81853 3.131218 -0.928211 3.5 0 3.5 
z
" style="stroke: #274b6d"/>
    </defs>
    <g clip-path="url(#p2a55f69308)">
     <use xlink:href="#m04d91ee839" x="87.12" y="64.850438" style="fill: #274b6d; stroke: #274b6d"/>
    </g>
   </g>
  </g>
  <g id="axes_2">
   <g id="patch_7">
    <path d="M 176.76 167.638438 
L 336.6 167.638438 
L 336.6 20.798438 
L 176.76 20.798438 
L 176.76 167.638438 
z
" style="fill: none"/>
   </g>
   <g id="matplotlib.axis_3">
    <g id="xtick_2">
     <g id="line2d_5">
      <g>
       <use xlink:href="#mb3f99132c7" x="256.68" y="167.638438" style="fill: #6a6d73; stroke: #6a6d73; stroke-width: 0.8"/>
      </g>
     </g>
     <g id="text_3">
      <text style="fill: #6a6d73; font: 8px 'DejaVu Sans', 'Helvetica', 'Arial', sans-serif; text-anchor: middle" x="256.68" y="180.717187" transform="rotate(-0 256.68 180.717187)">a</text>
     </g>
    </g>
   </g>
   <g id="matplotlib.axis_4"/>
   <g id="line2d_6">
    <path d="M 176.76 130.928438 
L 177.551127 130.783081 
L 178.342255 130.637724 
L 179.133382 130.492367 
L 179.924509 130.34701 
L 180.715636 130.201654 
L 181.506764 130.056297 
L 182.297891 129.91094 
L 183.089018 129.765583 
L 183.880145 129.620227 
L 184.671273 129.47487 
L 185.4624 129.329513 
L 186.253527 129.184156 
L 187.044655 129.0388 
L 187.835782 128.893443 
L 188.626909 128.748086 
L 189.418036 128.602729 
L 190.209164 128.457372 
L 191.000291 128.312016 
L 191.791418 128.166659 
L 192.582545 128.021302 
L 193.373673 127.875945 
L 194.1648 127.730589 
L 194.955927 127.585232 
L 195.747055 127.439875 
L 196.538182 127.294518 
L 197.329309 127.149162 
L 198.120436 127.003805 
L 198.911564 126.858448 
L 199.702691 126.713091 
L 200.493818 126.567734 
L 201.284945 126.422378 
L 202.076073 126.277021 
L 202.8672 126.131664 
L 203.658327 125.986307 
L 204.449455 125.840951 
L 205.240582 125.695594 
L 206.031709 125.550237 
L 206.822836 125.40488 
L 207.613964 125.259524 
L 208.405091 125.114167 
L 209.196218 124.96881 
L 209.987345 124.823453 
L 210.778473 124.678096 
L 211.5696 124.53274 
L 212.360727 124.387383 
L 213.151855 124.242026 
L 213.942982 124.096669 
L 214.734109 123.951313 
L 215.525236 123.805956 
L 216.316364 123.660599 
L 217.107491 123.515242 
L 217.898618 123.369886 
L 218.689745 123.224529 
L 219.480873 123.079172 
L 220.272 122.933815 
L 221.063127 122.788459 
L 221.854255 122.643102 
L 222.645382 122.497745 
L 223.436509 122.352388 
L 224.227636 122.207031 
L 225.018764 122.061675 
L 225.809891 121.916318 
L 226.601018 121.770961 
L 227.392145 121.625604 
L 228.183273 121.480248 
L 228.9744 121.334891 
L 229.765527 121.189534 
L 230.556655 121.044177 
L 231.347782 120.898821 
L 232.138909 120.753464 
L 232.930036 120.608107 
L 233.721164 120.46275 
L 234.512291 120.317393 
L 235.303418 120.172037 
L 236.094545 120.02668 
L 236.885673 119.881323 
L 237.6768 119.735966 
L 238.467927 119.59061 
L 239.259055 119.445253 
L 240.050182 119.299896 
L 240.841309 119.154539 
L 241.632436 119.009183 
L 242.423564 118.863826 
L 243.214691 118.718469 
L 244.005818 118.573112 
L 244.796945 118.427755 
L 245.588073 118.282399 
L 246.3792 118.137042 
L 247.170327 117.991685 
L 247.961455 117.846328 
L 248.752582 117.700972 
L 249.543709 117.555615 
L 250.334836 117.410258 
L 251.125964 117.264901 
L 251.917091 117.119545 
L 252.708218 116.974188 
L 253.499345 116.828831 
L 254.290473 116.683474 
L 255.0816 116.538118 
" clip-path="url(#pffe5241030)" style="fill: none; stroke: #17181b; stroke-width: 2; stroke-linecap: square"/>
   </g>
   <g id="line2d_7">
    <path d="M 258.2784 64.556758 
L 259.069527 64.411401 
L 259.860655 64.266044 
L 260.651782 64.120687 
L 261.442909 63.97533 
L 262.234036 63.829974 
L 263.025164 63.684617 
L 263.816291 63.53926 
L 264.607418 63.393903 
L 265.398545 63.248547 
L 266.189673 63.10319 
L 266.9808 62.957833 
L 267.771927 62.812476 
L 268.563055 62.66712 
L 269.354182 62.521763 
L 270.145309 62.376406 
L 270.936436 62.231049 
L 271.727564 62.085692 
L 272.518691 61.940336 
L 273.309818 61.794979 
L 274.100945 61.649622 
L 274.892073 61.504265 
L 275.6832 61.358909 
L 276.474327 61.213552 
L 277.265455 61.068195 
L 278.056582 60.922838 
L 278.847709 60.777482 
L 279.638836 60.632125 
L 280.429964 60.486768 
L 281.221091 60.341411 
L 282.012218 60.196054 
L 282.803345 60.050698 
L 283.594473 59.905341 
L 284.3856 59.759984 
L 285.176727 59.614627 
L 285.967855 59.469271 
L 286.758982 59.323914 
L 287.550109 59.178557 
L 288.341236 59.0332 
L 289.132364 58.887844 
L 289.923491 58.742487 
L 290.714618 58.59713 
L 291.505745 58.451773 
L 292.296873 58.306416 
L 293.088 58.16106 
L 293.879127 58.015703 
L 294.670255 57.870346 
L 295.461382 57.724989 
L 296.252509 57.579633 
L 297.043636 57.434276 
L 297.834764 57.288919 
L 298.625891 57.143562 
L 299.417018 56.998206 
L 300.208145 56.852849 
L 300.999273 56.707492 
L 301.7904 56.562135 
L 302.581527 56.416779 
L 303.372655 56.271422 
L 304.163782 56.126065 
L 304.954909 55.980708 
L 305.746036 55.835351 
L 306.537164 55.689995 
L 307.328291 55.544638 
L 308.119418 55.399281 
L 308.910545 55.253924 
L 309.701673 55.108568 
L 310.4928 54.963211 
L 311.283927 54.817854 
L 312.075055 54.672497 
L 312.866182 54.527141 
L 313.657309 54.381784 
L 314.448436 54.236427 
L 315.239564 54.09107 
L 316.030691 53.945713 
L 316.821818 53.800357 
L 317.612945 53.655 
L 318.404073 53.509643 
L 319.1952 53.364286 
L 319.986327 53.21893 
L 320.777455 53.073573 
L 321.568582 52.928216 
L 322.359709 52.782859 
L 323.150836 52.637503 
L 323.941964 52.492146 
L 324.733091 52.346789 
L 325.524218 52.201432 
L 326.315345 52.056075 
L 327.106473 51.910719 
L 327.8976 51.765362 
L 328.688727 51.620005 
L 329.479855 51.474648 
L 330.270982 51.329292 
L 331.062109 51.183935 
L 331.853236 51.038578 
L 332.644364 50.893221 
L 333.435491 50.747865 
L 334.226618 50.602508 
L 335.017745 50.457151 
L 335.808873 50.311794 
L 336.6 50.166438 
" clip-path="url(#pffe5241030)" style="fill: none; stroke: #17181b; stroke-width: 2; stroke-linecap: square"/>
   </g>
   <g id="line2d_8">
    <path d="M 176.76 167.638438 
L 336.6 167.638438 
" clip-path="url(#pffe5241030)" style="fill: none; stroke: #cfcdc4; stroke-width: 0.8; stroke-linecap: square"/>
   </g>
   <g id="patch_8">
    <path d="M 176.76 167.638438 
L 176.76 20.798438 
" style="fill: none; stroke: #cfcdc4; stroke-width: 0.8; stroke-linejoin: miter; stroke-linecap: square"/>
   </g>
   <g id="patch_9">
    <path d="M 176.76 167.638438 
L 336.6 167.638438 
" style="fill: none; stroke: #cfcdc4; stroke-width: 0.8; stroke-linejoin: miter; stroke-linecap: square"/>
   </g>
   <g id="text_4">
    <text style="fill: #17181b; font: 700 10px 'DejaVu Sans', 'Helvetica', 'Arial', sans-serif; text-anchor: middle" x="256.68" y="14.798438" transform="rotate(-0 256.68 14.798438)">a jump</text>
   </g>
   <g id="line2d_9">
    <path d="M 256.68 116.244438 
" clip-path="url(#pffe5241030)" style="fill: none; stroke: #1f77b4; stroke-width: 1.5; stroke-linecap: square"/>
    <defs>
     <path id="m238eb3e284" d="M 0 3.5 
C 0.928211 3.5 1.81853 3.131218 2.474874 2.474874 
C 3.131218 1.81853 3.5 0.928211 3.5 0 
C 3.5 -0.928211 3.131218 -1.81853 2.474874 -2.474874 
C 1.81853 -3.131218 0.928211 -3.5 0 -3.5 
C -0.928211 -3.5 -1.81853 -3.131218 -2.474874 -2.474874 
C -3.131218 -1.81853 -3.5 -0.928211 -3.5 0 
C -3.5 0.928211 -3.131218 1.81853 -2.474874 2.474874 
C -1.81853 3.131218 -0.928211 3.5 0 3.5 
z
" style="stroke: #b04a3f; stroke-width: 1.8"/>
    </defs>
    <g clip-path="url(#pffe5241030)">
     <use xlink:href="#m238eb3e284" x="256.68" y="116.244438" style="fill: #ffffff; stroke: #b04a3f; stroke-width: 1.8"/>
    </g>
   </g>
   <g id="line2d_10">
    <path d="M 256.68 64.850438 
" clip-path="url(#pffe5241030)" style="fill: none; stroke: #ff7f0e; stroke-width: 1.5; stroke-linecap: square"/>
    <g clip-path="url(#pffe5241030)">
     <use xlink:href="#m238eb3e284" x="256.68" y="64.850438" style="fill: #ffffff; stroke: #b04a3f; stroke-width: 1.8"/>
    </g>
   </g>
  </g>
  <g id="axes_3">
   <g id="patch_10">
    <path d="M 346.32 167.638438 
L 506.16 167.638438 
L 506.16 20.798438 
L 346.32 20.798438 
L 346.32 167.638438 
z
" style="fill: none"/>
   </g>
   <g id="matplotlib.axis_5">
    <g id="xtick_3">
     <g id="line2d_11">
      <g>
       <use xlink:href="#mb3f99132c7" x="426.24" y="167.638438" style="fill: #6a6d73; stroke: #6a6d73; stroke-width: 0.8"/>
      </g>
     </g>
     <g id="text_5">
      <text style="fill: #6a6d73; font: 8px 'DejaVu Sans', 'Helvetica', 'Arial', sans-serif; text-anchor: middle" x="426.24" y="180.717187" transform="rotate(-0 426.24 180.717187)">a</text>
     </g>
    </g>
   </g>
   <g id="matplotlib.axis_6"/>
   <g id="line2d_12">
    <path d="M 346.32 166.170038 
L 347.0304 166.14358 
L 347.7408 166.116402 
L 348.4512 166.088475 
L 349.1616 166.059773 
L 349.872 166.030266 
L 350.5824 165.999923 
L 351.2928 165.968714 
L 352.0032 165.936605 
L 352.7136 165.90356 
L 353.424 165.869544 
L 354.1344 165.834517 
L 354.8448 165.79844 
L 355.5552 165.761269 
L 356.2656 165.72296 
L 356.976 165.683467 
L 357.6864 165.64274 
L 358.3968 165.600726 
L 359.1072 165.557372 
L 359.8176 165.512619 
L 360.528 165.466407 
L 361.2384 165.418671 
L 361.9488 165.369345 
L 362.6592 165.318355 
L 363.3696 165.265628 
L 364.08 165.211082 
L 364.7904 165.154634 
L 365.5008 165.096194 
L 366.2112 165.035666 
L 366.9216 164.972951 
L 367.632 164.907942 
L 368.3424 164.840525 
L 369.0528 164.770579 
L 369.7632 164.697978 
L 370.4736 164.622585 
L 371.184 164.544254 
L 371.8944 164.462832 
L 372.6048 164.378153 
L 373.3152 164.290041 
L 374.0256 164.198308 
L 374.736 164.102754 
L 375.4464 164.003162 
L 376.1568 163.899302 
L 376.8672 163.790927 
L 377.5776 163.677771 
L 378.288 163.559549 
L 378.9984 163.435953 
L 379.7088 163.306653 
L 380.4192 163.171293 
L 381.1296 163.029488 
L 381.84 162.880821 
L 382.5504 162.724844 
L 383.2608 162.561069 
L 383.9712 162.388967 
L 384.6816 162.207964 
L 385.392 162.017436 
L 386.1024 161.816701 
L 386.8128 161.605019 
L 387.5232 161.381578 
L 388.2336 161.145491 
L 388.944 160.895784 
L 389.6544 160.631392 
L 390.3648 160.351137 
L 391.0752 160.053727 
L 391.7856 159.737731 
L 392.496 159.401568 
L 393.2064 159.043484 
L 393.9168 158.661533 
L 394.6272 158.253543 
L 395.3376 157.817094 
L 396.048 157.349476 
L 396.7584 156.847648 
L 397.4688 156.308191 
L 398.1792 155.727245 
L 398.8896 155.100446 
L 399.6 154.422838 
L 400.3104 153.688775 
L 401.0208 152.89181 
L 401.7312 152.024543 
L 402.4416 151.078458 
L 403.152 150.043704 
L 403.8624 148.908846 
L 404.5728 147.660542 
L 405.2832 146.283152 
L 405.9936 144.758244 
L 406.704 143.063975 
L 407.4144 141.174304 
L 408.1248 139.057988 
L 408.8352 136.677275 
L 409.5456 133.986219 
L 410.256 130.928438 
L 410.9664 127.434138 
L 411.6768 123.4161 
L 412.3872 118.764177 
L 413.0976 113.337671 
L 413.808 106.95456 
L 414.5184 99.376041 
L 415.2288 90.283859 
L 415.9392 79.246345 
L 416.6496 65.666215 
" clip-path="url(#pcc97a2e253)" style="fill: none; stroke: #17181b; stroke-width: 2; stroke-linecap: square"/>
   </g>
   <g id="line2d_13">
    <path d="M 435.8304 65.666215 
L 436.5408 79.246345 
L 437.2512 90.283859 
L 437.9616 99.376041 
L 438.672 106.95456 
L 439.3824 113.337671 
L 440.0928 118.764177 
L 440.8032 123.4161 
L 441.5136 127.434138 
L 442.224 130.928438 
L 442.9344 133.986219 
L 443.6448 136.677275 
L 444.3552 139.057988 
L 445.0656 141.174304 
L 445.776 143.063975 
L 446.4864 144.758244 
L 447.1968 146.283152 
L 447.9072 147.660542 
L 448.6176 148.908846 
L 449.328 150.043704 
L 450.0384 151.078458 
L 450.7488 152.024543 
L 451.4592 152.89181 
L 452.1696 153.688775 
L 452.88 154.422838 
L 453.5904 155.100446 
L 454.3008 155.727245 
L 455.0112 156.308191 
L 455.7216 156.847648 
L 456.432 157.349476 
L 457.1424 157.817094 
L 457.8528 158.253543 
L 458.5632 158.661533 
L 459.2736 159.043484 
L 459.984 159.401568 
L 460.6944 159.737731 
L 461.4048 160.053727 
L 462.1152 160.351137 
L 462.8256 160.631392 
L 463.536 160.895784 
L 464.2464 161.145491 
L 464.9568 161.381578 
L 465.6672 161.605019 
L 466.3776 161.816701 
L 467.088 162.017436 
L 467.7984 162.207964 
L 468.5088 162.388967 
L 469.2192 162.561069 
L 469.9296 162.724844 
L 470.64 162.880821 
L 471.3504 163.029488 
L 472.0608 163.171293 
L 472.7712 163.306653 
L 473.4816 163.435953 
L 474.192 163.559549 
L 474.9024 163.677771 
L 475.6128 163.790927 
L 476.3232 163.899302 
L 477.0336 164.003162 
L 477.744 164.102754 
L 478.4544 164.198308 
L 479.1648 164.290041 
L 479.8752 164.378153 
L 480.5856 164.462832 
L 481.296 164.544254 
L 482.0064 164.622585 
L 482.7168 164.697978 
L 483.4272 164.770579 
L 484.1376 164.840525 
L 484.848 164.907942 
L 485.5584 164.972951 
L 486.2688 165.035666 
L 486.9792 165.096194 
L 487.6896 165.154634 
L 488.4 165.211082 
L 489.1104 165.265628 
L 489.8208 165.318355 
L 490.5312 165.369345 
L 491.2416 165.418671 
L 491.952 165.466407 
L 492.6624 165.512619 
L 493.3728 165.557372 
L 494.0832 165.600726 
L 494.7936 165.64274 
L 495.504 165.683467 
L 496.2144 165.72296 
L 496.9248 165.761269 
L 497.6352 165.79844 
L 498.3456 165.834517 
L 499.056 165.869544 
L 499.7664 165.90356 
L 500.4768 165.936605 
L 501.1872 165.968714 
L 501.8976 165.999923 
L 502.608 166.030266 
L 503.3184 166.059773 
L 504.0288 166.088475 
L 504.7392 166.116402 
L 505.4496 166.14358 
L 506.16 166.170038 
" clip-path="url(#pcc97a2e253)" style="fill: none; stroke: #17181b; stroke-width: 2; stroke-linecap: square"/>
   </g>
   <g id="line2d_14">
    <path d="M 426.24 167.638438 
L 426.24 20.798438 
" clip-path="url(#pcc97a2e253)" style="fill: none; stroke-dasharray: 4,3; stroke-dashoffset: 0; stroke: #cfcdc4"/>
   </g>
   <g id="line2d_15">
    <path d="M 346.32 167.638438 
L 506.16 167.638438 
" clip-path="url(#pcc97a2e253)" style="fill: none; stroke: #cfcdc4; stroke-width: 0.8; stroke-linecap: square"/>
   </g>
   <g id="patch_11">
    <path d="M 346.32 167.638438 
L 346.32 20.798438 
" style="fill: none; stroke: #cfcdc4; stroke-width: 0.8; stroke-linejoin: miter; stroke-linecap: square"/>
   </g>
   <g id="patch_12">
    <path d="M 346.32 167.638438 
L 506.16 167.638438 
" style="fill: none; stroke: #cfcdc4; stroke-width: 0.8; stroke-linejoin: miter; stroke-linecap: square"/>
   </g>
   <g id="text_6">
    <text style="fill: #17181b; font: 700 10px 'DejaVu Sans', 'Helvetica', 'Arial', sans-serif; text-anchor: middle" x="426.24" y="14.798438" transform="rotate(-0 426.24 14.798438)">a blow-up</text>
   </g>
  </g>
 </g>
 <defs>
  <clipPath id="p2a55f69308">
   <rect x="7.2" y="20.798438" width="159.84" height="146.84"/>
  </clipPath>
  <clipPath id="pffe5241030">
   <rect x="176.76" y="20.798438" width="159.84" height="146.84"/>
  </clipPath>
  <clipPath id="pcc97a2e253">
   <rect x="346.32" y="20.798438" width="159.84" height="146.84"/>
  </clipPath>
 </defs>
</svg>
