<?xml version="1.0" encoding="utf-8" standalone="no"?>
<!DOCTYPE svg PUBLIC "-//W3C//DTD SVG 1.1//EN"
  "http://www.w3.org/Graphics/SVG/1.1/DTD/svg11.dtd">
<svg xmlns:xlink="http://www.w3.org/1999/xlink" width="361.29pt" height="241.436813pt" viewBox="0 0 361.29 241.436813" xmlns="http://www.w3.org/2000/svg" version="1.1">
 <metadata>
  <rdf:RDF xmlns:dc="http://purl.org/dc/elements/1.1/" xmlns:cc="http://creativecommons.org/ns#" xmlns:rdf="http://www.w3.org/1999/02/22-rdf-syntax-ns#">
   <cc:Work>
    <dc:type rdf:resource="http://purl.org/dc/dcmitype/StillImage"/>
    <dc:date>2026-07-17T11:24:49.589021</dc:date>
    <dc:format>image/svg+xml</dc:format>
    <dc:creator>
     <cc:Agent>
      <dc:title>Matplotlib v3.9.4, https://matplotlib.org/</dc:title>
     </cc:Agent>
    </dc:creator>
   </cc:Work>
  </rdf:RDF>
 </metadata>
 <defs>
  <style type="text/css">*{stroke-linejoin: round; stroke-linecap: butt}</style>
 </defs>
 <g id="figure_1">
  <g id="patch_1">
   <path d="M 0 241.436813 
L 361.29 241.436813 
L 361.29 0 
L 0 0 
L 0 241.436813 
z
" style="fill: none"/>
  </g>
  <g id="axes_1">
   <g id="patch_2">
    <path d="M 19.29 206.784 
L 354.09 206.784 
L 354.09 7.2 
L 19.29 7.2 
L 19.29 206.784 
z
" style="fill: none"/>
   </g>
   <g id="line2d_1">
    <path d="M 186.69 206.784 
L 186.69 89.381647 
" clip-path="url(#p141d869c50)" style="fill: none; stroke-dasharray: 4,3; stroke-dashoffset: 0; stroke: #cfcdc4"/>
   </g>
   <g id="line2d_2">
    <path d="M 19.29 89.381647 
L 186.69 89.381647 
" clip-path="url(#p141d869c50)" style="fill: none; stroke-dasharray: 4,3; stroke-dashoffset: 0; stroke: #cfcdc4"/>
   </g>
   <g id="matplotlib.axis_1">
    <g id="xtick_1">
     <g id="line2d_3">
      <defs>
       <path id="m88669ca2dd" d="M 0 0 
L 0 3.5 
" style="stroke: #6a6d73; stroke-width: 0.8"/>
      </defs>
      <g>
       <use xlink:href="#m88669ca2dd" x="186.69" y="206.784" style="fill: #6a6d73; stroke: #6a6d73; stroke-width: 0.8"/>
      </g>
     </g>
     <g id="text_1">
      <text style="fill: #6a6d73; font: 8px 'DejaVu Sans', 'Helvetica', 'Arial', sans-serif; text-anchor: middle" x="186.69" y="219.86275" transform="rotate(-0 186.69 219.86275)">1</text>
     </g>
    </g>
    <g id="text_2">
     <text style="fill: #3b3d42; font: 9px 'DejaVu Sans', 'Helvetica', 'Arial', sans-serif; text-anchor: middle" x="186.69" y="232.365094" transform="rotate(-0 186.69 232.365094)">x</text>
    </g>
   </g>
   <g id="matplotlib.axis_2">
    <g id="ytick_1">
     <g id="line2d_4">
      <defs>
       <path id="mc595af8997" d="M 0 0 
L -3.5 0 
" style="stroke: #6a6d73; stroke-width: 0.8"/>
      </defs>
      <g>
       <use xlink:href="#mc595af8997" x="19.29" y="89.381647" style="fill: #6a6d73; stroke: #6a6d73; stroke-width: 0.8"/>
      </g>
     </g>
     <g id="text_3">
      <text style="fill: #6a6d73; font: 8px 'DejaVu Sans', 'Helvetica', 'Arial', sans-serif; text-anchor: end" x="12.29" y="92.421022" transform="rotate(-0 12.29 92.421022)">2</text>
     </g>
    </g>
   </g>
   <g id="line2d_5">
    <path d="M 19.29 171.563294 
L 354.09 7.2 
L 354.09 7.2 
" clip-path="url(#p141d869c50)" style="fill: none; stroke: #17181b; stroke-width: 2.2; stroke-linecap: square"/>
   </g>
   <g id="patch_3">
    <path d="M 19.29 206.784 
L 19.29 7.2 
" style="fill: none; stroke: #cfcdc4; stroke-width: 0.8; stroke-linejoin: miter; stroke-linecap: square"/>
   </g>
   <g id="patch_4">
    <path d="M 19.29 206.784 
L 354.09 206.784 
" style="fill: none; stroke: #cfcdc4; stroke-width: 0.8; stroke-linejoin: miter; stroke-linecap: square"/>
   </g>
   <g id="patch_5">
    <path d="M 104.784155 129.591666 
Q 136.470172 114.036057 166.14896 99.465856 
" style="fill: none; stroke: #274b6d; stroke-width: 2; stroke-linecap: round"/>
    <path d="M 162.124144 99.436545 
L 166.14896 99.465856 
L 163.710622 102.668121 
z
" style="fill: #274b6d; stroke: #274b6d; stroke-width: 2; stroke-linecap: round"/>
   </g>
   <g id="patch_6">
    <path d="M 268.595845 49.171628 
Q 236.909828 64.727237 207.23104 79.297439 
" style="fill: none; stroke: #274b6d; stroke-width: 2; stroke-linecap: round"/>
    <path d="M 211.255856 79.32675 
L 207.23104 79.297439 
L 209.669378 76.095173 
z
" style="fill: #274b6d; stroke: #274b6d; stroke-width: 2; stroke-linecap: round"/>
   </g>
   <g id="text_4">
    <text style="fill: #274b6d; font: 8px 'DejaVu Sans', 'Helvetica', 'Arial', sans-serif; text-anchor: start" x="100.598571" y="142.212706" transform="rotate(-0 100.598571 142.212706)">from the left</text>
   </g>
   <g id="text_5">
    <text style="fill: #274b6d; font: 8px 'DejaVu Sans', 'Helvetica', 'Arial', sans-serif; text-anchor: start" x="272.781429" y="51.812894" transform="rotate(-0 272.781429 51.812894)">from the right</text>
   </g>
   <g id="text_6">
    <text style="fill: #9c6b12; font: 700 9px 'DejaVu Sans', 'Helvetica', 'Arial', sans-serif; text-anchor: start" x="193.864286" y="71.771294" transform="rotate(-0 193.864286 71.771294)">limit = 2</text>
   </g>
   <g id="line2d_6">
    <path d="M 186.69 89.381647 
" clip-path="url(#p141d869c50)" style="fill: none; stroke: #1f77b4; stroke-width: 1.5; stroke-linecap: square"/>
    <defs>
     <path id="mc3a46c36fb" d="M 0 4.5 
C 1.193414 4.5 2.338109 4.025852 3.181981 3.181981 
C 4.025852 2.338109 4.5 1.193414 4.5 0 
C 4.5 -1.193414 4.025852 -2.338109 3.181981 -3.181981 
C 2.338109 -4.025852 1.193414 -4.5 0 -4.5 
C -1.193414 -4.5 -2.338109 -4.025852 -3.181981 -3.181981 
C -4.025852 -2.338109 -4.5 -1.193414 -4.5 0 
C -4.5 1.193414 -4.025852 2.338109 -3.181981 3.181981 
C -2.338109 4.025852 -1.193414 4.5 0 4.5 
z
" style="stroke: #274b6d; stroke-width: 2"/>
    </defs>
    <g clip-path="url(#p141d869c50)">
     <use xlink:href="#mc3a46c36fb" x="186.69" y="89.381647" style="fill: #ffffff; stroke: #274b6d; stroke-width: 2"/>
    </g>
   </g>
  </g>
 </g>
 <defs>
  <clipPath id="p141d869c50">
   <rect x="19.29" y="7.2" width="334.8" height="199.584"/>
  </clipPath>
 </defs>
</svg>
